<svg width="24" height="28" viewBox="0 0 24 28" fill="none" xmlns="http://www.w3.org/2000/svg">
<path d="M1.74686 0.0354382C0.760069 1.04355 0.72204 2.26685 0.825353 3.39475C0.988838 4.9611 1.31329 6.52148 1.77908 7.98647C4.09367 14.671 8.4957 19.3651 14.5794 22.2742C16.1289 23.0079 17.8091 23.5164 19.6137 24.1806C18.3743 25.5987 16.4741 26.0598 15.1209 27.4521C15.8341 27.8262 16.4191 27.5341 16.9099 27.3056C18.92 26.3596 20.9393 25.3733 22.9298 24.338C23.8826 23.8319 24.0776 23.3239 23.5594 22.4417C22.5035 20.588 21.0064 19.2714 19.0972 18.5411C19.0213 18.5238 18.8799 18.6192 18.6535 18.7378C18.677 20.5697 20.8559 20.6391 21.2758 22.3061C18.5106 22.3587 16.1159 21.3058 13.852 20.0277C11.4834 18.6834 9.28364 17.1225 7.48699 15.0158C5.71913 12.9581 4.46035 10.5911 3.36124 8.04794C2.21501 5.53655 1.74014 2.88006 1.74686 0.0354382Z" fill="#171717"/>
</svg>
