<svg width="166" height="36" viewBox="0 0 166 36" fill="none" xmlns="http://www.w3.org/2000/svg">
<path d="M64.141 18.3032C64.141 24.9498 59.7698 29.6205 53.4824 29.6205C47.225 29.6205 42.9137 24.9798 42.9137 18.3032C42.9137 11.6566 47.255 6.98596 53.5124 6.98596C59.7698 6.98596 64.141 11.6266 64.141 18.3032ZM60.0991 18.3032C60.0991 13.6326 57.5243 10.6686 53.5124 10.6686C49.5005 10.6686 46.9256 13.6326 46.9256 18.3032C46.9256 22.9738 49.5005 25.9379 53.5124 25.9379C57.5243 25.9379 60.0991 22.9139 60.0991 18.3032Z" fill="#2752E7"/>
<path d="M70.8216 29.2612H67.1689V14.4709H70.5222L70.8216 16.2074C71.5701 14.9799 73.0671 14.0218 75.1928 14.0218C77.4383 14.0218 78.9951 15.1296 79.7736 16.8362C80.5221 15.1296 82.2586 14.0218 84.5041 14.0218C88.0968 14.0218 90.0729 16.1775 90.0729 19.5906V29.2612H86.4501V20.5487C86.4501 18.423 85.3124 17.3152 83.5759 17.3152C81.8095 17.3152 80.4622 18.4529 80.4622 20.878V29.2612H76.8095V20.5188C76.8095 18.4529 75.7018 17.3451 73.9653 17.3451C72.2287 17.3451 70.8216 18.4828 70.8216 20.878V29.2612Z" fill="#2752E7"/>
<path d="M98.0598 29.6504C94.9161 29.6504 92.9999 27.8241 92.9999 25.0397C92.9999 22.3151 94.976 20.6086 98.4789 20.3391L102.91 20.0098V19.6804C102.91 17.6745 101.712 16.8661 99.8562 16.8661C97.7005 16.8661 96.5029 17.7643 96.5029 19.3212H93.3892C93.3892 16.1176 96.0239 14.0218 100.036 14.0218C104.018 14.0218 106.473 16.1775 106.473 20.2792V29.2612H103.269L103 27.0756C102.371 28.6025 100.365 29.6504 98.0598 29.6504ZM99.2574 26.8959C101.503 26.8959 102.94 25.5486 102.94 23.2732V22.4948L99.8562 22.7343C97.5807 22.9439 96.7125 23.6924 96.7125 24.89C96.7125 26.2373 97.6107 26.8959 99.2574 26.8959Z" fill="#2752E7"/>
<path d="M109.193 21.8361C109.193 17.2553 112.217 14.0218 116.588 14.0218C120.63 14.0218 123.384 16.2673 123.774 19.8301H120.121C119.702 18.1535 118.474 17.2853 116.738 17.2853C114.402 17.2853 112.846 19.0517 112.846 21.8361C112.846 24.6205 114.283 26.357 116.618 26.357C118.444 26.357 119.732 25.4588 120.121 23.8421H123.804C123.354 27.2851 120.48 29.6504 116.618 29.6504C112.127 29.6504 109.193 26.5367 109.193 21.8361Z" fill="#2752E7"/>
<path d="M125.654 21.8361C125.654 17.2254 128.977 14.0518 133.558 14.0518C138.139 14.0518 141.462 17.2254 141.462 21.8361C141.462 26.4468 138.139 29.6205 133.558 29.6205C128.977 29.6205 125.654 26.4468 125.654 21.8361ZM129.307 21.8361C129.307 24.5307 131.043 26.357 133.558 26.357C136.073 26.357 137.81 24.5307 137.81 21.8361C137.81 19.1415 136.073 17.3152 133.558 17.3152C131.043 17.3152 129.307 19.1415 129.307 21.8361Z" fill="#2752E7"/>
<path d="M148.01 29.2612H144.357V14.4709H147.741L148.04 16.3871C148.968 14.8901 150.765 14.0218 152.771 14.0218C156.483 14.0218 158.399 16.3272 158.399 20.1595V29.2612H154.747V21.0277C154.747 18.5427 153.519 17.3451 151.633 17.3451C149.387 17.3451 148.01 18.902 148.01 21.2972V29.2612Z" fill="#2752E7"/>
<path d="M163.814 11.5069C162.557 11.5069 161.569 10.5189 161.569 9.29133C161.569 8.06379 162.557 7.10572 163.814 7.10572C165.012 7.10572 166 8.06379 166 9.29133C166 10.5189 165.012 11.5069 163.814 11.5069ZM161.988 29.2612V14.4709H165.641V29.2612H161.988Z" fill="#2752E7"/>
<path fill-rule="evenodd" clip-rule="evenodd" d="M0 17.9639C0 8.04271 8.04271 0 17.9639 0C27.8851 0 35.9278 8.04271 35.9278 17.9639C35.9278 27.8851 27.8851 35.9278 17.9639 35.9278C8.04271 35.9278 0 27.8851 0 17.9639ZM17.9639 31.9358C10.2474 31.9358 3.99197 25.6804 3.99197 17.9639C3.99197 17.0141 4.08675 16.0864 4.26737 15.1898C5.25411 19.0788 8.77802 21.9559 12.9739 21.9559C17.9345 21.9559 21.9559 17.9345 21.9559 12.9739C21.9559 8.77802 19.0788 5.25411 15.1898 4.26737C16.0864 4.08675 17.0141 3.99197 17.9639 3.99197C25.6804 3.99197 31.9358 10.2474 31.9358 17.9639C31.9358 25.6804 25.6804 31.9358 17.9639 31.9358ZM12.9739 17.9639C10.218 17.9639 7.98395 15.7298 7.98395 12.9739C7.98395 10.218 10.218 7.98395 12.9739 7.98395C15.7298 7.98395 17.9639 10.218 17.9639 12.9739C17.9639 15.7298 15.7298 17.9639 12.9739 17.9639Z" fill="#2752E7"/>
</svg>
