<svg width="19" height="18" viewBox="0 0 19 18" fill="none" xmlns="http://www.w3.org/2000/svg">
<path d="M4.65283 7.50013V6.00013C4.65283 3.51763 5.40283 1.50013 9.15283 1.50013C12.9028 1.50013 13.6528 3.51763 13.6528 6.00013V7.50013" stroke="#171717" stroke-width="1.49438" stroke-linecap="round" stroke-linejoin="round"/>
<path d="M9.15234 13.8749C10.1879 13.8749 11.0273 13.0354 11.0273 11.9999C11.0273 10.9643 10.1879 10.1249 9.15234 10.1249C8.11681 10.1249 7.27734 10.9643 7.27734 11.9999C7.27734 13.0354 8.11681 13.8749 9.15234 13.8749Z" stroke="#171717" stroke-width="1.49438" stroke-linecap="round" stroke-linejoin="round"/>
<path d="M12.9019 16.4999H5.40186C2.40186 16.4999 1.65186 15.7499 1.65186 12.7499L1.65186 11.2499C1.65186 8.24992 2.40186 7.49992 5.40186 7.49992H12.9019C15.9019 7.49992 16.6519 8.24992 16.6519 11.2499V12.7499C16.6519 15.7499 15.9019 16.4999 12.9019 16.4999Z" stroke="#171717" stroke-width="1.49438" stroke-linecap="round" stroke-linejoin="round"/>
</svg>
